<?xml version="1.0" standalone="no"?>
<!DOCTYPE svg PUBLIC "-//W3C//DTD SVG 20010904//EN"
 "http://www.w3.org/TR/2001/REC-SVG-20010904/DTD/svg10.dtd">
<svg version="1.0" xmlns="http://www.w3.org/2000/svg"
 width="600.000000pt" height="600.000000pt" viewBox="0 0 600.000000 600.000000"
 preserveAspectRatio="xMidYMid meet">
<metadata>
Created by potrace 1.14, written by Peter Selinger 2001-2017
</metadata>
<g transform="translate(0.000000,600.000000) scale(0.100000,-0.100000)"
fill="#000000" stroke="none">
<path d="M3925 5946 c-301 -257 -478 -405 -566 -474 l-106 -83 -264 -3 c-219
-2 -284 -6 -382 -24 -270 -50 -451 -108 -682 -222 -747 -365 -1246 -1065
-1357 -1900 -18 -141 -16 -470 6 -615 74 -508 312 -982 686 -1368 203 -210
389 -355 625 -486 149 -83 304 -148 314 -133 16 27 633 1763 628 1768 -3 3
-364 -42 -803 -100 -439 -58 -799 -104 -800 -103 -2 2 307 425 1916 2621 459
627 839 1145 843 1153 15 24 -7 13 -58 -31z"/>
<path d="M3366 4334 c-202 -509 -367 -926 -365 -928 2 -1 402 61 889 140 487
78 886 141 888 139 1 -1 -95 -130 -215 -286 -119 -156 -729 -957 -1356 -1779
-627 -822 -1160 -1521 -1184 -1553 -24 -31 -40 -57 -35 -57 9 0 196 149 451
359 177 146 194 154 297 141 121 -16 431 -13 569 5 537 71 1012 299 1394 670
400 389 647 874 727 1430 22 148 24 477 5 615 -77 557 -308 1026 -696 1416
-201 202 -382 336 -618 459 -126 66 -336 155 -365 155 -13 0 -105 -221 -386
-926z"/>
</g>
</svg>
